<?xml version="1.0" encoding="UTF-8"?>
<!DOCTYPE svg PUBLIC "-//W3C//DTD SVG 1.1//EN" "http://www.w3.org/Graphics/SVG/1.1/DTD/svg11.dtd">
<!-- Creator: CorelDRAW 2018 (64-Bit) -->
<svg xmlns="http://www.w3.org/2000/svg" xml:space="preserve" width="280px" height="280px" version="1.1" style="shape-rendering:geometricPrecision; text-rendering:geometricPrecision; image-rendering:optimizeQuality; fill-rule:evenodd; clip-rule:evenodd"
viewBox="0 0 46.4 46.4"
 xmlns:xlink="http://www.w3.org/1999/xlink">
 <defs>
  <style type="text/css">
   <![CDATA[
    .str0 {stroke:#C61819;stroke-width:0.74;stroke-miterlimit:2.61313}
    .str1 {stroke:#FEFEFE;stroke-width:0.12;stroke-miterlimit:2.61313}
    .fil0 {fill:#FEFEFE}
    .fil2 {fill:#C7181A}
    .fil1 {fill:#F84549}
    .fil3 {fill:#373435;fill-opacity:0.188235}
   ]]>
  </style>
 </defs>
 <g id="Layer_x0020_1">
  <metadata id="CorelCorpID_0Corel-Layer"/>
  <circle class="fil0 str0" transform="matrix(1.07559 -0.431794 -0.431794 -1.07559 23.2021 23.2021)" r="19.7"/>
  <circle class="fil1" transform="matrix(0.991047 -0.397856 0.397856 0.991047 23.2021 23.2021)" r="19.7"/>
  <path class="fil2" d="M36.51 6.91c2.67,2.17 4.84,5.03 6.21,8.46 1.38,3.43 1.79,7.01 1.36,10.44l-13.83 -5.61 6.26 -13.29zm-26.38 32.78c-2.77,-2.2 -5.03,-5.13 -6.45,-8.65 -1.42,-3.55 -1.81,-7.26 -1.31,-10.79l13.68 5.89 -5.92 13.55z"/>
  <path class="fil3" d="M36.25 6.78c0.47,0.35 0.93,0.71 1.37,1.1l-0.01 0.02 -3.22 8.17 -1.8 4.62 11.39 5.8c-0.03,0.28 -0.11,0.56 -0.15,0.85l-12.14 -4.33 -1.83 4.71 -0.37 0.97 -0.19 0.49 -0.05 0.12c-0.02,0.04 -0.02,0.06 -0.06,0.13l-0.16 0.37c-0.5,0.94 -1.33,1.72 -2.33,2.14 -0.5,0.2 -1.03,0.31 -1.57,0.34 -0.54,0.02 -1.09,-0.06 -1.6,-0.23l-0.38 -0.15c-0.07,-0.02 -0.09,-0.04 -0.14,-0.06l-0.11 -0.05 -0.48 -0.22 -0.94 -0.44 -4.58 -2.14 -5.75 11.45c-0.24,-0.18 -0.5,-0.34 -0.73,-0.53l4.23 -11.97 -4.5 -2.1 -7.96 -3.77 0 0c0.06,-0.62 0.14,-1.24 0.25,-1.84l0.47 0.17 8.19 3.21 7.77 3.03 3.88 1.52 0.97 0.38 0.49 0.19 0.12 0.04c0.03,0.02 0.09,0.04 0.1,0.04 0.04,0.01 0.08,0.02 0.11,0.04 0.3,0.06 0.61,0.06 0.91,-0.04 0.3,-0.1 0.55,-0.3 0.73,-0.57 0.02,-0.04 0.04,-0.07 0.07,-0.11 0,0 0.03,-0.06 0.04,-0.1l0.06 -0.12 0.22 -0.47 0.44 -0.94 1.77 -3.77 3.53 -7.55 3.73 -7.95 0.21 -0.45z"/>
  <path class="fil0 str1" d="M35.69 6.27c0.47,0.35 0.92,0.71 1.36,1.1l0 0.02 -3.02 7.76 -1.8 4.63 11.86 5.96c-0.04,0.29 -0.08,0.58 -0.13,0.87l-12.63 -4.51 -1.83 4.71 -0.38 0.97 -0.19 0.48 -0.05 0.12c-0.02,0.05 -0.02,0.07 -0.05,0.14l-0.17 0.36c-0.49,0.95 -1.33,1.73 -2.32,2.14 -0.5,0.21 -1.04,0.32 -1.58,0.35 -0.54,0.01 -1.09,-0.06 -1.6,-0.23l-0.37 -0.15c-0.08,-0.03 -0.1,-0.04 -0.14,-0.06l-0.12 -0.05 -0.47 -0.22 -0.95 -0.44 -4.58 -2.14 -5.99 11.92c-0.23,-0.17 -0.46,-0.36 -0.69,-0.54l4.44 -12.43 -4.5 -2.1 -7.54 -3.56 -0.01 0c0.06,-0.62 0.14,-1.23 0.25,-1.84l0.47 0.18 7.78 2.99 7.76 3.03 3.88 1.52 0.98 0.37 0.48 0.19 0.12 0.05c0.04,0.01 0.1,0.04 0.11,0.04 0.03,0.01 0.07,0.02 0.11,0.04 0.3,0.06 0.61,0.06 0.9,-0.04 0.3,-0.11 0.56,-0.3 0.74,-0.57 0.02,-0.04 0.04,-0.07 0.06,-0.11 0.01,-0.01 0.03,-0.07 0.05,-0.1l0.05 -0.12 0.22 -0.47 0.45 -0.94 1.76 -3.78 3.54 -7.55 3.53 -7.54 0.21 -0.45z"/>
 </g>
</svg>
